<?xml version="1.0" encoding="utf-8"?>
<!-- Generator: Adobe Illustrator 24.1.0, SVG Export Plug-In . SVG Version: 6.00 Build 0)  -->
<svg version="1.1" id="Layer_1" xmlns="http://www.w3.org/2000/svg" xmlns:xlink="http://www.w3.org/1999/xlink" x="0px" y="0px"
	 viewBox="0 0 1038 297" style="enable-background:new 0 0 1038 297;" xml:space="preserve">
<style type="text/css">
	.st0{fill:#F26C23;}
	.st1{fill:#44515C;}
</style>
<path class="st0" d="M927.77,25.23h-51.13l-96.5,248h28.4c13.84,0,26.26-8.5,31.27-21.4L927.77,25.23z"/>
<path class="st1" d="M24.08,273.23v-248h101.43c29.78,0,52.88,5.69,69.33,17.08c16.44,11.39,24.67,28.6,24.67,51.6
	c0,12.3-3.36,23.2-10.07,32.72c-6.71,9.51-15.4,16.24-26.04,20.19c11.8,3.93,21.66,10.95,29.58,21.04
	c7.93,10.11,11.89,21.63,11.89,34.56c0,23.43-8.05,41.09-24.15,52.97c-16.1,11.89-39.21,17.83-69.32,17.83H24.08z M73.54,127.09
	h50.59c6.7,0,12.51-0.4,17.42-1.23c4.9-0.81,9.44-2.28,13.59-4.39c4.16-2.11,7.34-5.18,9.53-9.21c2.19-4.04,3.29-8.98,3.29-14.83
	c0-5.73-1.1-10.56-3.29-14.49c-2.19-3.92-5.4-6.93-9.62-9.03s-8.8-3.57-13.77-4.39c-4.96-0.82-10.74-1.23-17.32-1.23H73.54V127.09z
	 M73.54,230.17l55.34,0.17c14.76,0,25.86-2.24,33.29-6.71c7.44-4.47,11.16-12.36,11.16-23.64c0-11.05-3.75-18.78-11.25-23.2
	c-7.49-4.41-18.57-6.63-33.21-6.63H73.54V230.17z"/>
<path class="st1" d="M298.82,273.23v-248h183.84v45.65H348.28v54.3h128.15v45.66H348.28v56.73h135.76v45.65H298.82z"/>
<path class="st1" d="M560,71.58V25.23h203.03v46.35h-76.79v201.65h-49.46V71.58H560z"/>
<path class="st1" d="M938.98,54.55l-25.58,65.89l51,131.39c5.01,12.9,17.43,21.4,31.27,21.4h28.4L938.98,54.55z"/>
</svg>
